<svg xmlns="http://www.w3.org/2000/svg" xmlns:xlink="http://www.w3.org/1999/xlink" version="1.1" style="enable-background:new 0 0 512 512;" xml:space="preserve" width="512" height="512"><rect id="backgroundrect" width="100%" height="100%" x="0" y="0" fill="none" stroke="none"/>

















<g class="currentLayer" style=""><title>Layer 1</title><g id="svg_1" class="selected" fill="#ffffff" fill-opacity="1">
	<g id="svg_2" fill="#ffffff" fill-opacity="1">
		<path d="M456.97225928354266,54.286 c-72.383,-72.382 -190.156,-72.38 -262.538,0 c-57.448,57.448 -69.292,143.484 -35.55,212.731 L16.90925928354263,408.993 c-23.533,23.533 -23.533,61.824 0,85.357 C28.675259283542633,506.117 44.13125928354263,512 59.588259283542634,512 s30.912,-5.882 42.679,-17.649 l141.976,-141.976 c25.622,12.485 53.541,18.736 81.462,18.736 c47.539,0 95.078,-18.096 131.27,-54.287 C529.3532592835427,244.441 529.3532592835427,126.668 456.97225928354266,54.286 zM81.02625928354263,473.11 c-11.822,11.821 -31.056,11.821 -42.877,0 c-11.821,-11.822 -11.821,-31.056 0,-42.877 l136.608,-136.608 c5.827,8.13 12.379,15.899000000000001 19.678,23.198 c7.3,7.3 15.069,13.851 23.199,19.679 L81.02625928354263,473.11 zM435.73225928354265,295.584 c-60.67,60.67 -159.388,60.671 -220.058,0 s-60.67,-159.387 0,-220.058 c30.339,-30.338 70.178,-45.503 110.03,-45.503 c39.841,0 79.698,15.171 110.029,45.503 C496.4022592835426,136.197 496.4022592835426,234.913 435.73225928354265,295.584 z" id="svg_3" fill="#ffffff" fill-opacity="1"/>
	</g>
</g><g id="svg_4" class="selected" fill="#ffffff" fill-opacity="1">
	<g id="svg_5" fill="#ffffff" fill-opacity="1">
		<path d="M424.772,87.228c-54.219-54.219-142.438-54.216-196.656,0c-26.264,26.264-40.728,61.184-40.728,98.328    c0,37.143,14.464,72.063,40.728,98.327c27.112,27.112,62.713,40.663,98.328,40.663c35.605,0,71.222-13.558,98.327-40.663    C478.99,229.665,478.99,141.445,424.772,87.228z M403.532,262.643c-42.509,42.506-111.67,42.505-154.176,0    c-42.507-42.507-42.507-111.669,0-154.176c21.256-21.256,49.167-31.879,77.088-31.879c27.913,0,55.838,10.629,77.087,31.879    C446.038,150.973,446.038,220.137,403.532,262.643z" id="svg_6" fill="#ffffff" fill-opacity="1"/>
	</g>
</g><g id="svg_7">
</g><g id="svg_8">
</g><g id="svg_9">
</g><g id="svg_10">
</g><g id="svg_11">
</g><g id="svg_12">
</g><g id="svg_13">
</g><g id="svg_14">
</g><g id="svg_15">
</g><g id="svg_16">
</g><g id="svg_17">
</g><g id="svg_18">
</g><g id="svg_19">
</g><g id="svg_20">
</g><g id="svg_21">
</g></g></svg>